<svg xmlns="http://www.w3.org/2000/svg" width="1200" height="420" viewBox="0 0 1200 420" role="img">
<rect width="100%" height="100%" fill="#f7f7fb"/>
<line x1="80" y1="300.0" x2="1140" y2="300.0" stroke="#dfe3ef" stroke-dasharray="4 6"/>
<text x="18" y="305.0" font-size="14" fill="#6a665c">0k</text>
<line x1="80" y1="235.0" x2="1140" y2="235.0" stroke="#dfe3ef" stroke-dasharray="4 6"/>
<text x="18" y="240.0" font-size="14" fill="#6a665c">1,267k</text>
<line x1="80" y1="170.0" x2="1140" y2="170.0" stroke="#dfe3ef" stroke-dasharray="4 6"/>
<text x="18" y="175.0" font-size="14" fill="#6a665c">2,535k</text>
<line x1="80" y1="105.0" x2="1140" y2="105.0" stroke="#dfe3ef" stroke-dasharray="4 6"/>
<text x="18" y="110.0" font-size="14" fill="#6a665c">3,802k</text>
<line x1="80" y1="40.0" x2="1140" y2="40.0" stroke="#dfe3ef" stroke-dasharray="4 6"/>
<text x="18" y="45.0" font-size="14" fill="#6a665c">5,070k</text>
<rect x="75.6" y="40.0" width="8.7" height="260.0" fill="#6d89a6" opacity="0.9"/>
<rect x="85.5" y="276.8" width="8.7" height="23.2" fill="#6d89a6" opacity="0.9"/>
<rect x="95.3" y="273.8" width="8.7" height="26.2" fill="#6d89a6" opacity="0.9"/>
<rect x="105.1" y="283.0" width="8.7" height="17.0" fill="#6d89a6" opacity="0.9"/>
<rect x="114.9" y="277.5" width="8.7" height="22.5" fill="#6d89a6" opacity="0.9"/>
<rect x="124.7" y="289.6" width="8.7" height="10.4" fill="#6d89a6" opacity="0.9"/>
<rect x="134.5" y="291.4" width="8.7" height="8.6" fill="#6d89a6" opacity="0.9"/>
<rect x="144.3" y="292.7" width="8.7" height="7.3" fill="#6d89a6" opacity="0.9"/>
<rect x="154.2" y="287.5" width="8.7" height="12.5" fill="#6d89a6" opacity="0.9"/>
<rect x="164.0" y="288.9" width="8.7" height="11.1" fill="#6d89a6" opacity="0.9"/>
<rect x="173.8" y="289.9" width="8.7" height="10.1" fill="#6d89a6" opacity="0.9"/>
<rect x="183.6" y="285.9" width="8.7" height="14.1" fill="#6d89a6" opacity="0.9"/>
<rect x="193.4" y="245.6" width="8.7" height="54.4" fill="#6d89a6" opacity="0.9"/>
<rect x="203.2" y="245.9" width="8.7" height="54.1" fill="#6d89a6" opacity="0.9"/>
<rect x="213.0" y="156.0" width="8.7" height="144.0" fill="#6d89a6" opacity="0.9"/>
<rect x="222.9" y="266.6" width="8.7" height="33.4" fill="#6d89a6" opacity="0.9"/>
<rect x="232.7" y="258.8" width="8.7" height="41.2" fill="#6d89a6" opacity="0.9"/>
<rect x="242.5" y="261.4" width="8.7" height="38.6" fill="#6d89a6" opacity="0.9"/>
<rect x="252.3" y="246.4" width="8.7" height="53.6" fill="#6d89a6" opacity="0.9"/>
<rect x="262.1" y="193.4" width="8.7" height="106.6" fill="#6d89a6" opacity="0.9"/>
<rect x="271.9" y="242.1" width="8.7" height="57.9" fill="#6d89a6" opacity="0.9"/>
<rect x="281.7" y="251.8" width="8.7" height="48.2" fill="#6d89a6" opacity="0.9"/>
<rect x="291.6" y="265.6" width="8.7" height="34.4" fill="#6d89a6" opacity="0.9"/>
<rect x="301.4" y="240.2" width="8.7" height="59.8" fill="#6d89a6" opacity="0.9"/>
<rect x="311.2" y="281.2" width="8.7" height="18.8" fill="#6d89a6" opacity="0.9"/>
<rect x="321.0" y="277.1" width="8.7" height="22.9" fill="#6d89a6" opacity="0.9"/>
<rect x="330.8" y="285.5" width="8.7" height="14.5" fill="#6d89a6" opacity="0.9"/>
<rect x="340.6" y="284.3" width="8.7" height="15.7" fill="#6d89a6" opacity="0.9"/>
<rect x="350.5" y="265.0" width="8.7" height="35.0" fill="#6d89a6" opacity="0.9"/>
<rect x="360.3" y="269.3" width="8.7" height="30.7" fill="#6d89a6" opacity="0.9"/>
<rect x="370.1" y="278.2" width="8.7" height="21.8" fill="#6d89a6" opacity="0.9"/>
<rect x="379.9" y="285.4" width="8.7" height="14.6" fill="#6d89a6" opacity="0.9"/>
<rect x="389.7" y="270.6" width="8.7" height="29.4" fill="#6d89a6" opacity="0.9"/>
<rect x="399.5" y="272.1" width="8.7" height="27.9" fill="#6d89a6" opacity="0.9"/>
<rect x="409.3" y="271.2" width="8.7" height="28.8" fill="#6d89a6" opacity="0.9"/>
<rect x="419.2" y="278.6" width="8.7" height="21.4" fill="#6d89a6" opacity="0.9"/>
<rect x="429.0" y="281.0" width="8.7" height="19.0" fill="#6d89a6" opacity="0.9"/>
<rect x="438.8" y="283.3" width="8.7" height="16.7" fill="#6d89a6" opacity="0.9"/>
<rect x="448.6" y="286.8" width="8.7" height="13.2" fill="#6d89a6" opacity="0.9"/>
<rect x="458.4" y="279.7" width="8.7" height="20.3" fill="#6d89a6" opacity="0.9"/>
<rect x="468.2" y="281.5" width="8.7" height="18.5" fill="#6d89a6" opacity="0.9"/>
<rect x="478.0" y="274.3" width="8.7" height="25.7" fill="#6d89a6" opacity="0.9"/>
<rect x="487.9" y="283.8" width="8.7" height="16.2" fill="#6d89a6" opacity="0.9"/>
<rect x="497.7" y="279.0" width="8.7" height="21.0" fill="#6d89a6" opacity="0.9"/>
<rect x="507.5" y="274.8" width="8.7" height="25.2" fill="#6d89a6" opacity="0.9"/>
<rect x="517.3" y="269.9" width="8.7" height="30.1" fill="#6d89a6" opacity="0.9"/>
<rect x="527.1" y="271.5" width="8.7" height="28.5" fill="#6d89a6" opacity="0.9"/>
<rect x="536.9" y="269.8" width="8.7" height="30.2" fill="#6d89a6" opacity="0.9"/>
<rect x="546.7" y="282.4" width="8.7" height="17.6" fill="#6d89a6" opacity="0.9"/>
<rect x="556.6" y="275.0" width="8.7" height="25.0" fill="#6d89a6" opacity="0.9"/>
<rect x="566.4" y="213.2" width="8.7" height="86.8" fill="#6d89a6" opacity="0.9"/>
<rect x="576.2" y="271.5" width="8.7" height="28.5" fill="#6d89a6" opacity="0.9"/>
<rect x="586.0" y="275.8" width="8.7" height="24.2" fill="#6d89a6" opacity="0.9"/>
<rect x="595.8" y="282.5" width="8.7" height="17.5" fill="#6d89a6" opacity="0.9"/>
<rect x="605.6" y="286.9" width="8.7" height="13.1" fill="#6d89a6" opacity="0.9"/>
<rect x="615.5" y="286.2" width="8.7" height="13.8" fill="#6d89a6" opacity="0.9"/>
<rect x="625.3" y="294.9" width="8.7" height="5.1" fill="#6d89a6" opacity="0.9"/>
<rect x="635.1" y="292.8" width="8.7" height="7.2" fill="#6d89a6" opacity="0.9"/>
<rect x="644.9" y="294.4" width="8.7" height="5.6" fill="#6d89a6" opacity="0.9"/>
<rect x="654.7" y="286.7" width="8.7" height="13.3" fill="#6d89a6" opacity="0.9"/>
<rect x="664.5" y="291.7" width="8.7" height="8.3" fill="#6d89a6" opacity="0.9"/>
<rect x="674.3" y="293.5" width="8.7" height="6.5" fill="#6d89a6" opacity="0.9"/>
<rect x="684.2" y="294.0" width="8.7" height="6.0" fill="#6d89a6" opacity="0.9"/>
<rect x="694.0" y="296.4" width="8.7" height="3.6" fill="#6d89a6" opacity="0.9"/>
<rect x="703.8" y="292.7" width="8.7" height="7.3" fill="#6d89a6" opacity="0.9"/>
<rect x="713.6" y="296.5" width="8.7" height="3.5" fill="#6d89a6" opacity="0.9"/>
<rect x="723.4" y="287.3" width="8.7" height="12.7" fill="#6d89a6" opacity="0.9"/>
<rect x="733.2" y="276.6" width="8.7" height="23.4" fill="#6d89a6" opacity="0.9"/>
<rect x="743.0" y="290.0" width="8.7" height="10.0" fill="#6d89a6" opacity="0.9"/>
<rect x="752.9" y="292.7" width="8.7" height="7.3" fill="#6d89a6" opacity="0.9"/>
<rect x="762.7" y="294.8" width="8.7" height="5.2" fill="#6d89a6" opacity="0.9"/>
<rect x="772.5" y="293.8" width="8.7" height="6.2" fill="#6d89a6" opacity="0.9"/>
<rect x="782.3" y="286.8" width="8.7" height="13.2" fill="#6d89a6" opacity="0.9"/>
<rect x="792.1" y="296.4" width="8.7" height="3.6" fill="#6d89a6" opacity="0.9"/>
<rect x="801.9" y="288.9" width="8.7" height="11.1" fill="#6d89a6" opacity="0.9"/>
<rect x="811.7" y="279.6" width="8.7" height="20.4" fill="#6d89a6" opacity="0.9"/>
<rect x="821.6" y="284.7" width="8.7" height="15.3" fill="#6d89a6" opacity="0.9"/>
<rect x="831.4" y="275.9" width="8.7" height="24.1" fill="#6d89a6" opacity="0.9"/>
<rect x="841.2" y="293.6" width="8.7" height="6.4" fill="#6d89a6" opacity="0.9"/>
<rect x="851.0" y="293.5" width="8.7" height="6.5" fill="#355070" opacity="0.9"/>
<rect x="860.8" y="288.5" width="8.7" height="11.5" fill="#355070" opacity="0.9"/>
<rect x="870.6" y="290.8" width="8.7" height="9.2" fill="#355070" opacity="0.9"/>
<rect x="880.5" y="282.3" width="8.7" height="17.7" fill="#355070" opacity="0.9"/>
<rect x="890.3" y="290.2" width="8.7" height="9.8" fill="#355070" opacity="0.9"/>
<rect x="900.1" y="278.8" width="8.7" height="21.2" fill="#355070" opacity="0.9"/>
<rect x="909.9" y="266.7" width="8.7" height="33.3" fill="#9c3d3d" opacity="0.9"/>
<rect x="919.7" y="276.8" width="8.7" height="23.2" fill="#355070" opacity="0.9"/>
<rect x="929.5" y="279.0" width="8.7" height="21.0" fill="#355070" opacity="0.9"/>
<rect x="939.3" y="286.6" width="8.7" height="13.4" fill="#355070" opacity="0.9"/>
<rect x="949.2" y="285.4" width="8.7" height="14.6" fill="#355070" opacity="0.9"/>
<rect x="959.0" y="287.4" width="8.7" height="12.6" fill="#355070" opacity="0.9"/>
<rect x="968.8" y="286.0" width="8.7" height="14.0" fill="#355070" opacity="0.9"/>
<rect x="978.6" y="291.8" width="8.7" height="8.2" fill="#355070" opacity="0.9"/>
<rect x="988.4" y="291.1" width="8.7" height="8.9" fill="#355070" opacity="0.9"/>
<rect x="998.2" y="290.9" width="8.7" height="9.1" fill="#355070" opacity="0.9"/>
<rect x="1008.0" y="287.7" width="8.7" height="12.3" fill="#355070" opacity="0.9"/>
<rect x="1017.9" y="292.3" width="8.7" height="7.7" fill="#355070" opacity="0.9"/>
<rect x="1027.7" y="295.8" width="8.7" height="4.2" fill="#355070" opacity="0.9"/>
<rect x="1037.5" y="295.6" width="8.7" height="4.4" fill="#355070" opacity="0.9"/>
<rect x="1047.3" y="292.9" width="8.7" height="7.1" fill="#355070" opacity="0.9"/>
<rect x="1057.1" y="295.3" width="8.7" height="4.7" fill="#355070" opacity="0.9"/>
<rect x="1066.9" y="294.1" width="8.7" height="5.9" fill="#355070" opacity="0.9"/>
<rect x="1076.7" y="291.0" width="8.7" height="9.0" fill="#355070" opacity="0.9"/>
<rect x="1086.6" y="282.9" width="8.7" height="17.1" fill="#9c3d3d" opacity="0.9"/>
<rect x="1096.4" y="294.3" width="8.7" height="5.7" fill="#355070" opacity="0.9"/>
<rect x="1106.2" y="291.5" width="8.7" height="8.5" fill="#355070" opacity="0.9"/>
<rect x="1116.0" y="294.9" width="8.7" height="5.1" fill="#355070" opacity="0.9"/>
<rect x="1125.8" y="293.3" width="8.7" height="6.7" fill="#355070" opacity="0.9"/>
<rect x="1135.6" y="299.2" width="8.7" height="0.8" fill="#355070" opacity="0.9"/>
<line x1="80" y1="16.7" x2="1140" y2="16.7" stroke="#8a1c1c" stroke-width="2.2" stroke-dasharray="10 6"/>
<text x="860" y="8.7" font-size="14" fill="#8a1c1c">2025 IPO/초기 과열 평균 5.52M</text>
<line x1="80" y1="290.5" x2="1140" y2="290.5" stroke="#1f5d4d" stroke-width="2.2" stroke-dasharray="10 6"/>
<text x="860" y="282.5" font-size="14" fill="#1f5d4d">최근 평균 0.186M</text>
<text x="64.0" y="326" font-size="13" fill="#6a665c">11월</text>
<text x="260.3" y="326" font-size="13" fill="#6a665c">12월</text>
<text x="270.1" y="326" font-size="13" fill="#6a665c">12월</text>
<text x="279.9" y="326" font-size="13" fill="#6a665c">12월</text>
<text x="466.4" y="326" font-size="13" fill="#6a665c">01월</text>
<text x="672.5" y="326" font-size="13" fill="#6a665c">02월</text>
<text x="682.3" y="326" font-size="13" fill="#6a665c">02월</text>
<text x="839.4" y="326" font-size="13" fill="#6a665c">03월</text>
<text x="1045.5" y="326" font-size="13" fill="#6a665c">04월</text>
<text x="1055.3" y="326" font-size="13" fill="#6a665c">04월</text>
<text x="1065.1" y="326" font-size="13" fill="#6a665c">04월</text>
<rect x="80" y="40" width="1060" height="260" fill="none" stroke="#9f9a8f"/>
<text x="80" y="26" font-size="24" font-weight="700" fill="#2d2a24">거래량 레짐 변화: 과열 5.52M → 최근 0.186M</text>
<text x="80" y="340" font-size="15" fill="#5b564d">의미: 관심은 확실히 식었지만, 완전히 잊힌 종목인지 여부는 최근 로봇 뉴스 흐름 때문에 해석이 갈림.</text>
</svg>
