<svg xmlns="http://www.w3.org/2000/svg" width="1200" height="540" viewBox="0 0 1200 540" role="img">
<rect width="100%" height="100%" fill="#fffaf2"/>
<rect x="80" y="296.2" width="1060" height="14.1" fill="#d7ead8" opacity="0.55"/>
<rect x="80" y="277.4" width="1060" height="14.1" fill="#c9e3d1" opacity="0.55"/>
<rect x="80" y="254.0" width="1060" height="14.1" fill="#f2e6b3" opacity="0.55"/>
<rect x="80" y="211.8" width="1060" height="9.4" fill="#f6d6b8" opacity="0.55"/>
<line x1="80" y1="430.0" x2="1140" y2="430.0" stroke="#e0d9ca" stroke-dasharray="4 6"/>
<text x="16" y="435.0" font-size="14" fill="#6a665c">18k</text>
<line x1="80" y1="354.0" x2="1140" y2="354.0" stroke="#e0d9ca" stroke-dasharray="4 6"/>
<text x="16" y="359.0" font-size="14" fill="#6a665c">51k</text>
<line x1="80" y1="278.0" x2="1140" y2="278.0" stroke="#e0d9ca" stroke-dasharray="4 6"/>
<text x="16" y="283.0" font-size="14" fill="#6a665c">83k</text>
<line x1="80" y1="202.0" x2="1140" y2="202.0" stroke="#e0d9ca" stroke-dasharray="4 6"/>
<text x="16" y="207.0" font-size="14" fill="#6a665c">116k</text>
<line x1="80" y1="126.0" x2="1140" y2="126.0" stroke="#e0d9ca" stroke-dasharray="4 6"/>
<text x="16" y="131.0" font-size="14" fill="#6a665c">148k</text>
<line x1="80" y1="50.0" x2="1140" y2="50.0" stroke="#e0d9ca" stroke-dasharray="4 6"/>
<text x="16" y="55.0" font-size="14" fill="#6a665c">181k</text>
<line x1="80.0" y1="50" x2="80.0" y2="430" stroke="#efe8d9"/>
<text x="64.0" y="456" font-size="13" fill="#6a665c">11월</text>
<line x1="276.3" y1="50" x2="276.3" y2="430" stroke="#efe8d9"/>
<text x="260.3" y="456" font-size="13" fill="#6a665c">12월</text>
<line x1="286.1" y1="50" x2="286.1" y2="430" stroke="#efe8d9"/>
<text x="270.1" y="456" font-size="13" fill="#6a665c">12월</text>
<line x1="295.9" y1="50" x2="295.9" y2="430" stroke="#efe8d9"/>
<text x="279.9" y="456" font-size="13" fill="#6a665c">12월</text>
<line x1="482.4" y1="50" x2="482.4" y2="430" stroke="#efe8d9"/>
<text x="466.4" y="456" font-size="13" fill="#6a665c">01월</text>
<line x1="688.5" y1="50" x2="688.5" y2="430" stroke="#efe8d9"/>
<text x="672.5" y="456" font-size="13" fill="#6a665c">02월</text>
<line x1="698.3" y1="50" x2="698.3" y2="430" stroke="#efe8d9"/>
<text x="682.3" y="456" font-size="13" fill="#6a665c">02월</text>
<line x1="855.4" y1="50" x2="855.4" y2="430" stroke="#efe8d9"/>
<text x="839.4" y="456" font-size="13" fill="#6a665c">03월</text>
<line x1="1061.5" y1="50" x2="1061.5" y2="430" stroke="#efe8d9"/>
<text x="1045.5" y="456" font-size="13" fill="#6a665c">04월</text>
<line x1="1071.3" y1="50" x2="1071.3" y2="430" stroke="#efe8d9"/>
<text x="1055.3" y="456" font-size="13" fill="#6a665c">04월</text>
<line x1="1081.1" y1="50" x2="1081.1" y2="430" stroke="#efe8d9"/>
<text x="1065.1" y="456" font-size="13" fill="#6a665c">04월</text>
<rect x="80" y="50" width="1060" height="380" fill="none" stroke="#9f9a8f"/>
<path d="M 80.0 384.6 L 89.8 387.7 L 99.6 398.1 L 109.4 403.8 L 119.3 399.7 L 129.1 397.2 L 138.9 400.4 L 148.7 396.9 L 158.5 392.8 L 168.3 394.3 L 178.1 388.0 L 188.0 385.6 L 197.8 388.6 L 207.6 379.1 L 217.4 361.9 L 227.2 371.1 L 237.0 380.1 L 246.9 375.8 L 256.7 370.8 L 266.5 349.3 L 276.3 333.6 L 286.1 324.3 L 295.9 327.5 L 305.7 317.5 L 315.6 321.7 L 325.4 332.9 L 335.2 331.8 L 345.0 338.8 L 354.8 341.1 L 364.6 332.5 L 374.4 330.6 L 384.3 336.9 L 394.1 340.2 L 403.9 351.2 L 413.7 357.5 L 423.5 355.7 L 433.3 362.4 L 443.1 363.6 L 453.0 365.0 L 462.8 365.5 L 472.6 371.6 L 482.4 353.3 L 492.2 354.3 L 502.0 352.4 L 511.9 347.0 L 521.7 337.2 L 531.5 324.5 L 541.3 304.4 L 551.1 301.5 L 560.9 320.1 L 570.7 273.9 L 580.6 284.4 L 590.4 279.5 L 600.2 293.3 L 610.0 289.6 L 619.8 310.0 L 629.6 312.8 L 639.4 311.4 L 649.3 309.5 L 659.1 301.1 L 668.9 303.2 L 678.7 303.9 L 688.5 321.9 L 698.3 313.7 L 708.1 324.3 L 718.0 332.5 L 727.8 328.5 L 737.6 299.9 L 747.4 296.9 L 757.2 297.3 L 767.0 296.2 L 776.9 306.2 L 786.7 286.3 L 796.5 293.6 L 806.3 286.3 L 816.1 256.3 L 825.9 225.9 L 835.7 181.4 L 845.6 177.4 L 855.4 184.9 L 865.2 236.4 L 875.0 184.0 L 884.8 122.8 L 894.6 158.0 L 904.4 76.2 L 914.3 153.3 L 924.1 172.7 L 933.9 193.1 L 943.7 210.7 L 953.5 214.2 L 963.3 217.9 L 973.1 196.6 L 983.0 191.5 L 992.8 245.1 L 1002.6 228.2 L 1012.4 188.6 L 1022.2 182.6 L 1032.0 190.8 L 1041.9 224.7 L 1051.7 222.4 L 1061.5 208.1 L 1071.3 214.9 L 1081.1 235.3 L 1090.9 266.2 L 1100.7 273.0 L 1110.6 256.3 L 1120.4 269.5 L 1130.2 268.8 L 1140.0 284.2" fill="none" stroke="#0d4d63" stroke-width="3"/>
<circle cx="914.3" cy="153.3" r="5" fill="#8a1c1c"/>
<text x="922.3" y="135.3" font-size="14" fill="#8a1c1c">178.4k ATH</text>
<circle cx="718.0" cy="332.5" r="5" fill="#1f5d4d"/>
<text x="726.0" y="352.5" font-size="14" fill="#1f5d4d">60.5k</text>
<circle cx="1140.0" cy="284.2" r="5" fill="#1f5d4d"/>
<text x="1148.0" y="304.2" font-size="14" fill="#1f5d4d">83.0k</text>
<text x="940" y="272.2" font-size="14" fill="#215b4f">1차 판단대 83~85k</text>
<text x="940" y="258.2" font-size="14" fill="#8b6d1d">상단 되찾기 88~93k</text>
<text x="940" y="230.1" font-size="14" fill="#915d2d">추세 복원 100~105k</text>
<text x="80" y="28" font-size="24" font-weight="700" fill="#2d2a24">최근 6개월 가격 구조: 110k 실패 후 80k/70k 지지 시험</text>
<text x="80" y="455" font-size="15" fill="#5b564d">핵심 해석: 110k는 공급대, 90k는 약한 회복선, 80k와 70k가 현재 의미 있는 PLS 지지대.</text>
</svg>
